<svg width="21" height="21" viewBox="0 0 21 21" fill="none" xmlns="http://www.w3.org/2000/svg">
    <path fill-rule="evenodd" clip-rule="evenodd" d="M0 0.792847C0 0.378633 0.335786 0.0428467 0.75 0.0428467H3.32539C3.66954 0.0428467 3.96953 0.27707 4.053 0.610945L4.42605 2.10316H19.2928C19.5238 2.10316 19.7418 2.20956 19.884 2.3916C20.0261 2.57364 20.0764 2.81101 20.0204 3.03506L17.9601 11.2763C17.8766 11.6102 17.5767 11.8444 17.2325 11.8444H5.90078H5.3857C4.94651 11.8444 4.59047 12.2005 4.59047 12.6396C4.59047 13.0788 4.94651 13.4349 5.3857 13.4349H17.2325C17.6467 13.4349 17.9825 13.7707 17.9825 14.1849C17.9825 14.5991 17.6467 14.9349 17.2325 14.9349H5.3857C4.11808 14.9349 3.09047 13.9073 3.09047 12.6396C3.09047 11.5208 3.89099 10.589 4.9505 10.3856L3.11286 3.03506L2.73981 1.54285H0.75C0.335786 1.54285 0 1.20706 0 0.792847ZM6.48637 10.3444H16.6469L18.3322 3.60316H4.80105L6.48637 10.3444ZM5.90078 18.0254C5.74606 18.0254 5.62063 18.1508 5.62063 18.3055C5.62063 18.4602 5.74606 18.5857 5.90078 18.5857C6.05551 18.5857 6.18094 18.4602 6.18094 18.3055C6.18094 18.1508 6.05551 18.0254 5.90078 18.0254ZM4.12063 18.3055C4.12063 17.3224 4.91763 16.5254 5.90078 16.5254C6.88394 16.5254 7.68094 17.3224 7.68094 18.3055C7.68094 19.2887 6.88394 20.0857 5.90078 20.0857C4.91763 20.0857 4.12063 19.2887 4.12063 18.3055ZM16.2023 18.0254C16.0476 18.0254 15.9222 18.1508 15.9222 18.3055C15.9222 18.4602 16.0476 18.5857 16.2023 18.5857C16.3571 18.5857 16.4825 18.4602 16.4825 18.3055C16.4825 18.1508 16.3571 18.0254 16.2023 18.0254ZM14.4222 18.3055C14.4222 17.3224 15.2192 16.5254 16.2023 16.5254C17.1855 16.5254 17.9825 17.3224 17.9825 18.3055C17.9825 19.2887 17.1855 20.0857 16.2023 20.0857C15.2192 20.0857 14.4222 19.2887 14.4222 18.3055Z" fill="#F4EDD1"/>
</svg>